<svg version="1.1" xmlns="http://www.w3.org/2000/svg" xmlns:xlink="http://www.w3.org/1999/xlink" width="828" height="756"><defs/><g><g transform="translate(-14,-6) scale(1,1)"><rect fill="#C0C0C0" stroke="none" x="31" y="311" width="323.2" height="15" opacity="0.2"/></g><g transform="translate(-14,-6) scale(1,1)"><rect fill="#C0C0C0" stroke="none" x="31" y="325" width="808" height="434" opacity="0.2"/></g><g transform="translate(-14,-6) scale(1,1)"><rect fill="#a3e0ff" stroke="none" x="24" y="319" width="808" height="433"/></g><g transform="translate(-14,-6) scale(1,1)"><path fill="none" stroke="#000000" d="M 24 319 L 832 319 L 832 752 L 24 752 L 24 319 Z Z" stroke-miterlimit="10"/></g><g transform="translate(-14,-6) scale(1,1)"><rect fill="#a3e0ff" stroke="none" x="24" y="304" width="323.2" height="15"/></g><g transform="translate(-14,-6) scale(1,1)"><path fill="none" stroke="#000000" d="M 24 304 L 347.2 304 L 347.2 319 L 24 319 L 24 304 Z Z" stroke-miterlimit="10"/></g><g transform="translate(-14,-6) scale(1,1)"><rect fill="#a3e0ff" stroke="none" x="24" y="318" width="808" height="434"/></g><g transform="translate(-14,-6) scale(1,1)"><path fill="none" stroke="#000000" d="M 24 318 L 832 318 L 832 752 L 24 752 L 24 318 Z Z" stroke-miterlimit="10"/></g><g transform="translate(-14,-6) scale(1,1)"><g><path fill="none" stroke="none"/><text fill="#000000" stroke="none" font-family="monospace" font-size="12px" font-style="normal" font-weight="bold" text-decoration="none" x="395.5947265625" y="335.291015625">cs1302.p2</text></g></g><g transform="translate(-14,-6) scale(1,1)"><rect fill="#C0C0C0" stroke="none" x="47" y="359" width="513.08203125" height="163" opacity="0.2"/></g><g transform="translate(-14,-6) scale(1,1)"><rect fill="#fffca0" stroke="none" x="40" y="352" width="513.08203125" height="163"/></g><g transform="translate(-14,-6) scale(1,1)"><path fill="none" stroke="#000000" d="M 40 352 L 553.08203125 352 L 553.08203125 515 L 40 515 L 40 352 Z Z" stroke-miterlimit="10"/></g><g transform="translate(-14,-6) scale(1,1)"><path fill="none" stroke="#000000" d="M 40 388 L 553.08203125 388" stroke-miterlimit="10"/></g><g transform="translate(-14,-6) scale(1,1)"><path fill="none" stroke="#000000" d="M 40 410 L 553.08203125 410" stroke-miterlimit="10"/></g><g transform="translate(-14,-6) scale(1,1)"><g><path fill="none" stroke="none"/><text fill="#000000" stroke="none" font-family="monospace" font-size="12px" font-style="normal" font-weight="normal" text-decoration="none" x="260.53515625" y="366.3349609375">«abstract»</text></g></g><g transform="translate(-14,-6) scale(1,1)"><g><path fill="none" stroke="none"/><text fill="#000000" stroke="none" font-family="monospace" font-size="12px" font-style="italic" font-weight="bold" text-decoration="none" x="246.1328125" y="380.53125">BaseStringList</text></g></g><g transform="translate(-14,-6) scale(1,1)"><g><path fill="none" stroke="none"/><text fill="#000000" stroke="none" font-family="monospace" font-size="12px" font-style="normal" font-weight="normal" text-decoration="none" x="45" y="402.5986328125">#size: int</text></g></g><g transform="translate(-14,-6) scale(1,1)"><g><path fill="none" stroke="none"/><text fill="#000000" stroke="none" font-family="monospace" font-size="12px" font-style="normal" font-weight="normal" text-decoration="none" x="45" y="424.53125">«new»+BaseStringList()</text></g></g><g transform="translate(-14,-6) scale(1,1)"><g><path fill="none" stroke="none"/><text fill="#000000" stroke="none" font-family="monospace" font-size="12px" font-style="normal" font-weight="normal" text-decoration="none" x="45" y="438.53125">«override»+size(): int</text></g></g><g transform="translate(-14,-6) scale(1,1)"><g><path fill="none" stroke="none"/><text fill="#000000" stroke="none" font-family="monospace" font-size="12px" font-style="normal" font-weight="normal" text-decoration="none" x="45" y="452.53125">«override»+isEmpty(): boolean</text></g></g><g transform="translate(-14,-6) scale(1,1)"><g><path fill="none" stroke="none"/><text fill="#000000" stroke="none" font-family="monospace" font-size="12px" font-style="normal" font-weight="normal" text-decoration="none" x="45" y="466.53125">«override»+makeString(start: String, sep: String, end: String): String</text></g></g><g transform="translate(-14,-6) scale(1,1)"><g><path fill="none" stroke="none"/><text fill="#000000" stroke="none" font-family="monospace" font-size="12px" font-style="normal" font-weight="normal" text-decoration="none" x="45" y="480.53125">«override»+toString(): String</text></g></g><g transform="translate(-14,-6) scale(1,1)"><g><path fill="none" stroke="none"/><text fill="#000000" stroke="none" font-family="monospace" font-size="12px" font-style="normal" font-weight="normal" text-decoration="none" x="45" y="494.53125">«override»+contains(start: int, target: String): boolean</text></g></g><g transform="translate(-14,-6) scale(1,1)"><g><path fill="none" stroke="none"/><text fill="#000000" stroke="none" font-family="monospace" font-size="12px" font-style="normal" font-weight="normal" text-decoration="none" x="45" y="508.53125">«override»+add(index: int, itemList: StringList): boolean</text></g></g><g transform="translate(-14,-6) scale(1,1)"><rect fill="#C0C0C0" stroke="none" x="47" y="593" width="376.259765625" height="151" opacity="0.2"/></g><g transform="translate(-14,-6) scale(1,1)"><rect fill="#fffca0" stroke="none" x="40" y="586" width="376.259765625" height="151"/></g><g transform="translate(-14,-6) scale(1,1)"><path fill="none" stroke="#000000" d="M 40 586 L 416.259765625 586 L 416.259765625 737 L 40 737 L 40 586 Z Z" stroke-miterlimit="10"/></g><g transform="translate(-14,-6) scale(1,1)"><path fill="none" stroke="#000000" d="M 40 610 L 416.259765625 610" stroke-miterlimit="10"/></g><g transform="translate(-14,-6) scale(1,1)"><path fill="none" stroke="#000000" d="M 40 632 L 416.259765625 632" stroke-miterlimit="10"/></g><g transform="translate(-14,-6) scale(1,1)"><g><path fill="none" stroke="none"/><text fill="#000000" stroke="none" font-family="monospace" font-size="12px" font-style="normal" font-weight="bold" text-decoration="none" x="174.12109375" y="602.53125">ArrayStringList</text></g></g><g transform="translate(-14,-6) scale(1,1)"><g><path fill="none" stroke="none"/><text fill="#000000" stroke="none" font-family="monospace" font-size="12px" font-style="normal" font-weight="normal" text-decoration="none" x="45" y="624.53125">-items: String[]</text></g></g><g transform="translate(-14,-6) scale(1,1)"><g><path fill="none" stroke="none"/><text fill="#000000" stroke="none" font-family="monospace" font-size="12px" font-style="normal" font-weight="normal" text-decoration="none" x="45" y="646.53125">«new»+ArrayStringList()</text></g></g><g transform="translate(-14,-6) scale(1,1)"><g><path fill="none" stroke="none"/><text fill="#000000" stroke="none" font-family="monospace" font-size="12px" font-style="normal" font-weight="normal" text-decoration="none" x="45" y="660.53125">«override»+add(index: int, item: String): boolean</text></g></g><g transform="translate(-14,-6) scale(1,1)"><g><path fill="none" stroke="none"/><text fill="#000000" stroke="none" font-family="monospace" font-size="12px" font-style="normal" font-weight="normal" text-decoration="none" x="45" y="674.53125">«override»+get(index: int): String</text></g></g><g transform="translate(-14,-6) scale(1,1)"><g><path fill="none" stroke="none"/><text fill="#000000" stroke="none" font-family="monospace" font-size="12px" font-style="normal" font-weight="normal" text-decoration="none" x="45" y="688.53125">«override»+clear(): void</text></g></g><g transform="translate(-14,-6) scale(1,1)"><g><path fill="none" stroke="none"/><text fill="#000000" stroke="none" font-family="monospace" font-size="12px" font-style="normal" font-weight="normal" text-decoration="none" x="45" y="702.53125">«override»+remove(index: int): String</text></g></g><g transform="translate(-14,-6) scale(1,1)"><g><path fill="none" stroke="none"/><text fill="#000000" stroke="none" font-family="monospace" font-size="12px" font-style="normal" font-weight="normal" text-decoration="none" x="45" y="716.53125">«override»+reverse(): StringList</text></g></g><g transform="translate(-14,-6) scale(1,1)"><g><path fill="none" stroke="none"/><text fill="#000000" stroke="none" font-family="monospace" font-size="12px" font-style="normal" font-weight="normal" text-decoration="none" x="45" y="730.53125">«override»+slice(start: int, stop: int): StringList</text></g></g><g transform="translate(-14,-6) scale(1,1)"><path fill="none" stroke="#000000" d="M 248 586 L 248 558 L 297 558 L 297 515" stroke-miterlimit="10"/></g><g transform="translate(-14,-6) scale(1,1)"><path fill="#FFFFFF" stroke="none" d="M 305.419035512032 535.3253497152483 L 297 515 L 288.580964487968 535.3253497152483"/></g><g transform="translate(-14,-6) scale(1,1)"><path fill="none" stroke="#000000" d="M 305.419035512032 535.3253497152483 L 297 515 L 288.580964487968 535.3253497152483 L 305.419035512032 535.3253497152483" stroke-miterlimit="10"/></g><g transform="translate(-14,-6) scale(1,1)"><rect fill="#C0C0C0" stroke="none" x="447" y="593" width="376.259765625" height="151" opacity="0.2"/></g><g transform="translate(-14,-6) scale(1,1)"><rect fill="#fffca0" stroke="none" x="440" y="586" width="376.259765625" height="151"/></g><g transform="translate(-14,-6) scale(1,1)"><path fill="none" stroke="#000000" d="M 440 586 L 816.259765625 586 L 816.259765625 737 L 440 737 L 440 586 Z Z" stroke-miterlimit="10"/></g><g transform="translate(-14,-6) scale(1,1)"><path fill="none" stroke="#000000" d="M 440 610 L 816.259765625 610" stroke-miterlimit="10"/></g><g transform="translate(-14,-6) scale(1,1)"><path fill="none" stroke="#000000" d="M 440 632 L 816.259765625 632" stroke-miterlimit="10"/></g><g transform="translate(-14,-6) scale(1,1)"><g><path fill="none" stroke="none"/><text fill="#000000" stroke="none" font-family="monospace" font-size="12px" font-style="normal" font-weight="bold" text-decoration="none" x="570.5205078125" y="602.53125">LinkedStringList</text></g></g><g transform="translate(-14,-6) scale(1,1)"><g><path fill="none" stroke="none"/><text fill="#000000" stroke="none" font-family="monospace" font-size="12px" font-style="normal" font-weight="normal" text-decoration="none" x="445" y="624.3349609375">-head: Node</text></g></g><g transform="translate(-14,-6) scale(1,1)"><g><path fill="none" stroke="none"/><text fill="#000000" stroke="none" font-family="monospace" font-size="12px" font-style="normal" font-weight="normal" text-decoration="none" x="445" y="646.53125">«new»+LinkedStringList()</text></g></g><g transform="translate(-14,-6) scale(1,1)"><g><path fill="none" stroke="none"/><text fill="#000000" stroke="none" font-family="monospace" font-size="12px" font-style="normal" font-weight="normal" text-decoration="none" x="445" y="660.53125">«override»+add(index: int, item: String): boolean</text></g></g><g transform="translate(-14,-6) scale(1,1)"><g><path fill="none" stroke="none"/><text fill="#000000" stroke="none" font-family="monospace" font-size="12px" font-style="normal" font-weight="normal" text-decoration="none" x="445" y="674.53125">«override»+clear(): void</text></g></g><g transform="translate(-14,-6) scale(1,1)"><g><path fill="none" stroke="none"/><text fill="#000000" stroke="none" font-family="monospace" font-size="12px" font-style="normal" font-weight="normal" text-decoration="none" x="445" y="688.53125">«override»+get(index: int): String</text></g></g><g transform="translate(-14,-6) scale(1,1)"><g><path fill="none" stroke="none"/><text fill="#000000" stroke="none" font-family="monospace" font-size="12px" font-style="normal" font-weight="normal" text-decoration="none" x="445" y="702.53125">«override»+remove(index: int): String</text></g></g><g transform="translate(-14,-6) scale(1,1)"><g><path fill="none" stroke="none"/><text fill="#000000" stroke="none" font-family="monospace" font-size="12px" font-style="normal" font-weight="normal" text-decoration="none" x="445" y="716.53125">«override»+reverse(): StringList</text></g></g><g transform="translate(-14,-6) scale(1,1)"><g><path fill="none" stroke="none"/><text fill="#000000" stroke="none" font-family="monospace" font-size="12px" font-style="normal" font-weight="normal" text-decoration="none" x="445" y="730.53125">«override»+slice(start: int, stop: int): StringList</text></g></g><g transform="translate(-14,-6) scale(1,1)"><path fill="none" stroke="#000000" d="M 628 586 L 628 558 L 297 558 L 297 515" stroke-miterlimit="10"/></g><g transform="translate(-14,-6) scale(1,1)"><path fill="#FFFFFF" stroke="none" d="M 305.419035512032 535.3253497152483 L 297 515 L 288.580964487968 535.3253497152483"/></g><g transform="translate(-14,-6) scale(1,1)"><path fill="none" stroke="#000000" d="M 305.419035512032 535.3253497152483 L 297 515 L 288.580964487968 535.3253497152483 L 305.419035512032 535.3253497152483" stroke-miterlimit="10"/></g><g transform="translate(-14,-6) scale(1,1)"><g><path fill="none" stroke="none"/><text fill="#000000" stroke="none" font-family="Courier" font-size="12px" font-style="normal" font-weight="normal" text-decoration="none" x="307.1005859375" y="549.3349609375">extends</text></g></g><g transform="translate(-14,-6) scale(1,1)"><rect fill="#C0C0C0" stroke="none" x="31" y="23" width="323.2" height="15" opacity="0.2"/></g><g transform="translate(-14,-6) scale(1,1)"><rect fill="#C0C0C0" stroke="none" x="31" y="37" width="808" height="258" opacity="0.2"/></g><g transform="translate(-14,-6) scale(1,1)"><rect fill="#a3e0ff" stroke="none" x="24" y="31" width="808" height="257"/></g><g transform="translate(-14,-6) scale(1,1)"><path fill="none" stroke="#000000" d="M 24 31 L 832 31 L 832 288 L 24 288 L 24 31 Z Z" stroke-miterlimit="10"/></g><g transform="translate(-14,-6) scale(1,1)"><rect fill="#a3e0ff" stroke="none" x="24" y="16" width="323.2" height="15"/></g><g transform="translate(-14,-6) scale(1,1)"><path fill="none" stroke="#000000" d="M 24 16 L 347.2 16 L 347.2 31 L 24 31 L 24 16 Z Z" stroke-miterlimit="10"/></g><g transform="translate(-14,-6) scale(1,1)"><rect fill="#a3e0ff" stroke="none" x="24" y="30" width="808" height="258"/></g><g transform="translate(-14,-6) scale(1,1)"><path fill="none" stroke="#000000" d="M 24 30 L 832 30 L 832 288 L 24 288 L 24 30 Z Z" stroke-miterlimit="10"/></g><g transform="translate(-14,-6) scale(1,1)"><g><path fill="none" stroke="none"/><text fill="#000000" stroke="none" font-family="monospace" font-size="12px" font-style="normal" font-weight="bold" text-decoration="none" x="391.994140625" y="47.3349609375">cs1302.adt</text></g></g><g transform="translate(-14,-6) scale(1,1)"><rect fill="#C0C0C0" stroke="none" x="47" y="71" width="448" height="211" opacity="0.2"/></g><g transform="translate(-14,-6) scale(1,1)"><rect fill="#91ffec" stroke="none" x="40" y="64" width="448" height="211"/></g><g transform="translate(-14,-6) scale(1,1)"><path fill="none" stroke="#000000" d="M 40 64 L 488 64 L 488 275 L 40 275 L 40 64 Z Z" stroke-miterlimit="10"/></g><g transform="translate(-14,-6) scale(1,1)"><path fill="none" stroke="#000000" d="M 40 100 L 488 100" stroke-miterlimit="10"/></g><g transform="translate(-14,-6) scale(1,1)"><g><path fill="none" stroke="none"/><text fill="#000000" stroke="none" font-family="monospace" font-size="12px" font-style="normal" font-weight="normal" text-decoration="none" x="224.3935546875" y="78.53125">«interface»</text></g></g><g transform="translate(-14,-6) scale(1,1)"><g><path fill="none" stroke="none"/><text fill="#000000" stroke="none" font-family="monospace" font-size="12px" font-style="normal" font-weight="bold" text-decoration="none" x="227.994140625" y="92.53125">StringList</text></g></g><g transform="translate(-14,-6) scale(1,1)"><g><path fill="none" stroke="none"/><text fill="#000000" stroke="none" font-family="monospace" font-size="12px" font-style="italic" font-weight="normal" text-decoration="none" x="45" y="114.53125">+add(index: int, item: String): boolean</text></g></g><g transform="translate(-14,-6) scale(1,1)"><g><path fill="none" stroke="none"/><text fill="#000000" stroke="none" font-family="monospace" font-size="12px" font-style="italic" font-weight="normal" text-decoration="none" x="45" y="128.53125">+get(index: int): String</text></g></g><g transform="translate(-14,-6) scale(1,1)"><g><path fill="none" stroke="none"/><text fill="#000000" stroke="none" font-family="monospace" font-size="12px" font-style="italic" font-weight="normal" text-decoration="none" x="45" y="142.53125">+size(): int</text></g></g><g transform="translate(-14,-6) scale(1,1)"><g><path fill="none" stroke="none"/><text fill="#000000" stroke="none" font-family="monospace" font-size="12px" font-style="italic" font-weight="normal" text-decoration="none" x="45" y="156.53125">+isEmpty(): boolean</text></g></g><g transform="translate(-14,-6) scale(1,1)"><g><path fill="none" stroke="none"/><text fill="#000000" stroke="none" font-family="monospace" font-size="12px" font-style="italic" font-weight="normal" text-decoration="none" x="45" y="170.53125">+makeString(start: String, sep: String, end: String): String</text></g></g><g transform="translate(-14,-6) scale(1,1)"><g><path fill="none" stroke="none"/><text fill="#000000" stroke="none" font-family="monospace" font-size="12px" font-style="italic" font-weight="normal" text-decoration="none" x="45" y="184.53125">+toString(): String</text></g></g><g transform="translate(-14,-6) scale(1,1)"><g><path fill="none" stroke="none"/><text fill="#000000" stroke="none" font-family="monospace" font-size="12px" font-style="italic" font-weight="normal" text-decoration="none" x="45" y="198.53125">+clear(): void</text></g></g><g transform="translate(-14,-6) scale(1,1)"><g><path fill="none" stroke="none"/><text fill="#000000" stroke="none" font-family="monospace" font-size="12px" font-style="italic" font-weight="normal" text-decoration="none" x="45" y="212.53125">+remove(index: int): String</text></g></g><g transform="translate(-14,-6) scale(1,1)"><g><path fill="none" stroke="none"/><text fill="#000000" stroke="none" font-family="monospace" font-size="12px" font-style="italic" font-weight="normal" text-decoration="none" x="45" y="226.53125">+contains(start: int, target: String): boolean</text></g></g><g transform="translate(-14,-6) scale(1,1)"><g><path fill="none" stroke="none"/><text fill="#000000" stroke="none" font-family="monospace" font-size="12px" font-style="italic" font-weight="normal" text-decoration="none" x="45" y="240.53125">+add(index: int, itemList: StringList): boolean</text></g></g><g transform="translate(-14,-6) scale(1,1)"><g><path fill="none" stroke="none"/><text fill="#000000" stroke="none" font-family="monospace" font-size="12px" font-style="italic" font-weight="normal" text-decoration="none" x="45" y="254.53125">+reverse(): StringList</text></g></g><g transform="translate(-14,-6) scale(1,1)"><g><path fill="none" stroke="none"/><text fill="#000000" stroke="none" font-family="monospace" font-size="12px" font-style="italic" font-weight="normal" text-decoration="none" x="45" y="268.53125">+slice(start: int, stop: int): StringList</text></g></g><g transform="translate(-14,-6) scale(1,1)"><path fill="none" stroke="#000000" d="M 276 352 L 276 275" stroke-miterlimit="10" stroke-dasharray="3"/></g><g transform="translate(-14,-6) scale(1,1)"><path fill="#FFFFFF" stroke="none" d="M 284.419035512032 295.3253497152483 L 276 275 L 267.580964487968 295.3253497152483"/></g><g transform="translate(-14,-6) scale(1,1)"><path fill="none" stroke="#000000" d="M 284.419035512032 295.3253497152483 L 276 275 L 267.580964487968 295.3253497152483 L 284.419035512032 295.3253497152483" stroke-miterlimit="10"/></g><g transform="translate(-14,-6) scale(1,1)"><g><path fill="none" stroke="none"/><text fill="#000000" stroke="none" font-family="Courier" font-size="12px" font-style="normal" font-weight="normal" text-decoration="none" x="195.1005859375" y="343.53125">implements</text></g></g><g transform="translate(-14,-6) scale(1,1)"><rect fill="#C0C0C0" stroke="none" x="551" y="71" width="268.2421875" height="179" opacity="0.2"/></g><g transform="translate(-14,-6) scale(1,1)"><rect fill="#fffca0" stroke="none" x="544" y="64" width="268.2421875" height="179"/></g><g transform="translate(-14,-6) scale(1,1)"><path fill="none" stroke="#000000" d="M 544 64 L 812.2421875 64 L 812.2421875 243 L 544 243 L 544 64 Z Z" stroke-miterlimit="10"/></g><g transform="translate(-14,-6) scale(1,1)"><path fill="none" stroke="#000000" d="M 544 88 L 812.2421875 88" stroke-miterlimit="10"/></g><g transform="translate(-14,-6) scale(1,1)"><path fill="none" stroke="#000000" d="M 544 124 L 812.2421875 124" stroke-miterlimit="10"/></g><g transform="translate(-14,-6) scale(1,1)"><g><path fill="none" stroke="none"/><text fill="#000000" stroke="none" font-family="monospace" font-size="12px" font-style="normal" font-weight="bold" text-decoration="none" x="663.71875" y="80.3349609375">Node</text></g></g><g transform="translate(-14,-6) scale(1,1)"><g><path fill="none" stroke="none"/><text fill="#000000" stroke="none" font-family="monospace" font-size="12px" font-style="normal" font-weight="normal" text-decoration="none" x="549" y="102.53125">~item: String</text></g></g><g transform="translate(-14,-6) scale(1,1)"><g><path fill="none" stroke="none"/><text fill="#000000" stroke="none" font-family="monospace" font-size="12px" font-style="normal" font-weight="normal" text-decoration="none" x="549" y="116.3349609375">~next: Node</text></g></g><g transform="translate(-14,-6) scale(1,1)"><g><path fill="none" stroke="none"/><text fill="#000000" stroke="none" font-family="monospace" font-size="12px" font-style="normal" font-weight="normal" text-decoration="none" x="549" y="138.53125">«new»+Node(item: String, next: Node)</text></g></g><g transform="translate(-14,-6) scale(1,1)"><g><path fill="none" stroke="none"/><text fill="#000000" stroke="none" font-family="monospace" font-size="12px" font-style="normal" font-weight="normal" text-decoration="none" x="549" y="152.53125">«new»+Node(item: String)</text></g></g><g transform="translate(-14,-6) scale(1,1)"><g><path fill="none" stroke="none"/><text fill="#000000" stroke="none" font-family="monospace" font-size="12px" font-style="normal" font-weight="normal" text-decoration="none" x="549" y="166.53125">+asString(): String</text></g></g><g transform="translate(-14,-6) scale(1,1)"><g><path fill="none" stroke="none"/><text fill="#000000" stroke="none" font-family="monospace" font-size="12px" font-style="normal" font-weight="normal" text-decoration="none" x="549" y="180.53125">+getItem(): String</text></g></g><g transform="translate(-14,-6) scale(1,1)"><g><path fill="none" stroke="none"/><text fill="#000000" stroke="none" font-family="monospace" font-size="12px" font-style="normal" font-weight="normal" text-decoration="none" x="549" y="194.53125">+setItem(item: String)</text></g></g><g transform="translate(-14,-6) scale(1,1)"><g><path fill="none" stroke="none"/><text fill="#000000" stroke="none" font-family="monospace" font-size="12px" font-style="normal" font-weight="normal" text-decoration="none" x="549" y="208.3349609375">+getNext(): Node</text></g></g><g transform="translate(-14,-6) scale(1,1)"><g><path fill="none" stroke="none"/><text fill="#000000" stroke="none" font-family="monospace" font-size="12px" font-style="normal" font-weight="normal" text-decoration="none" x="549" y="222.3349609375">+setNext(next: Node)</text></g></g><g transform="translate(-14,-6) scale(1,1)"><g><path fill="none" stroke="none"/><text fill="#000000" stroke="none" font-family="monospace" font-size="12px" font-style="normal" font-weight="normal" text-decoration="none" x="549" y="236.3349609375">+hasNext(): boolean</text></g></g><g transform="translate(-14,-6) scale(1,1)"><path fill="none" stroke="#000000" d="M 643 586 L 643 243" stroke-miterlimit="10"/></g><g transform="translate(-14,-6) scale(1,1)"><path fill="none" stroke="#000000" d="M 647.209517756016 253.16267485762415 L 643 243 L 638.790482243984 253.16267485762415" stroke-miterlimit="10"/></g><g transform="translate(-14,-6) scale(1,1)"><g><path fill="none" stroke="none"/><text fill="#000000" stroke="none" font-family="monospace" font-size="12px" font-style="normal" font-weight="normal" text-decoration="none" x="653.5" y="408.6953125">dependsOn/uses</text></g></g></g></svg>