<svg version="1.1" xmlns="http://www.w3.org/2000/svg" xmlns:xlink="http://www.w3.org/1999/xlink" width="288.2421875" height="199"><defs/><g><g transform="translate(-230,-70) scale(1,1)"><rect fill="#C0C0C0" stroke="none" x="247" y="87" width="268.2421875" height="179" opacity="0.2"/></g><g transform="translate(-230,-70) scale(1,1)"><rect fill="#fffca0" stroke="none" x="240" y="80" width="268.2421875" height="179"/></g><g transform="translate(-230,-70) scale(1,1)"><path fill="none" stroke="#000000" d="M 240 80 L 508.2421875 80 L 508.2421875 259 L 240 259 L 240 80 Z Z" stroke-miterlimit="10"/></g><g transform="translate(-230,-70) scale(1,1)"><path fill="none" stroke="#000000" d="M 240 104 L 508.2421875 104" stroke-miterlimit="10"/></g><g transform="translate(-230,-70) scale(1,1)"><path fill="none" stroke="#000000" d="M 240 140 L 508.2421875 140" stroke-miterlimit="10"/></g><g transform="translate(-230,-70) scale(1,1)"><g><path fill="none" stroke="none"/><text fill="#000000" stroke="none" font-family="monospace" font-size="12px" font-style="normal" font-weight="bold" text-decoration="none" x="359.71875" y="96.3349609375">Node</text></g></g><g transform="translate(-230,-70) scale(1,1)"><g><path fill="none" stroke="none"/><text fill="#000000" stroke="none" font-family="monospace" font-size="12px" font-style="normal" font-weight="normal" text-decoration="none" x="245" y="118.53125">~item: String</text></g></g><g transform="translate(-230,-70) scale(1,1)"><g><path fill="none" stroke="none"/><text fill="#000000" stroke="none" font-family="monospace" font-size="12px" font-style="normal" font-weight="normal" text-decoration="none" x="245" y="132.3349609375">~next: Node</text></g></g><g transform="translate(-230,-70) scale(1,1)"><g><path fill="none" stroke="none"/><text fill="#000000" stroke="none" font-family="monospace" font-size="12px" font-style="normal" font-weight="normal" text-decoration="none" x="245" y="154.53125">«new»+Node(item: String, next: Node)</text></g></g><g transform="translate(-230,-70) scale(1,1)"><g><path fill="none" stroke="none"/><text fill="#000000" stroke="none" font-family="monospace" font-size="12px" font-style="normal" font-weight="normal" text-decoration="none" x="245" y="168.53125">«new»+Node(item: String)</text></g></g><g transform="translate(-230,-70) scale(1,1)"><g><path fill="none" stroke="none"/><text fill="#000000" stroke="none" font-family="monospace" font-size="12px" font-style="normal" font-weight="normal" text-decoration="none" x="245" y="182.53125">+asString(): String</text></g></g><g transform="translate(-230,-70) scale(1,1)"><g><path fill="none" stroke="none"/><text fill="#000000" stroke="none" font-family="monospace" font-size="12px" font-style="normal" font-weight="normal" text-decoration="none" x="245" y="196.53125">+getItem(): String</text></g></g><g transform="translate(-230,-70) scale(1,1)"><g><path fill="none" stroke="none"/><text fill="#000000" stroke="none" font-family="monospace" font-size="12px" font-style="normal" font-weight="normal" text-decoration="none" x="245" y="210.53125">+setItem(item: String)</text></g></g><g transform="translate(-230,-70) scale(1,1)"><g><path fill="none" stroke="none"/><text fill="#000000" stroke="none" font-family="monospace" font-size="12px" font-style="normal" font-weight="normal" text-decoration="none" x="245" y="224.3349609375">+getNext(): Node</text></g></g><g transform="translate(-230,-70) scale(1,1)"><g><path fill="none" stroke="none"/><text fill="#000000" stroke="none" font-family="monospace" font-size="12px" font-style="normal" font-weight="normal" text-decoration="none" x="245" y="238.3349609375">+setNext(next: Node)</text></g></g><g transform="translate(-230,-70) scale(1,1)"><g><path fill="none" stroke="none"/><text fill="#000000" stroke="none" font-family="monospace" font-size="12px" font-style="normal" font-weight="normal" text-decoration="none" x="245" y="252.3349609375">+hasNext(): boolean</text></g></g></g></svg>