<svg version="1.1" xmlns="http://www.w3.org/2000/svg" xmlns:xlink="http://www.w3.org/1999/xlink" width="461.0703125" height="231"><defs/><g><g transform="translate(-14,-22) scale(1,1)"><rect fill="#C0C0C0" stroke="none" x="31" y="39" width="441.0703125" height="211" opacity="0.2"/></g><g transform="translate(-14,-22) scale(1,1)"><rect fill="#91ffec" stroke="none" x="24" y="32" width="441.0703125" height="211"/></g><g transform="translate(-14,-22) scale(1,1)"><path fill="none" stroke="#000000" d="M 24 32 L 465.0703125 32 L 465.0703125 243 L 24 243 L 24 32 Z Z" stroke-miterlimit="10"/></g><g transform="translate(-14,-22) scale(1,1)"><path fill="none" stroke="#000000" d="M 24 68 L 465.0703125 68" stroke-miterlimit="10"/></g><g transform="translate(-14,-22) scale(1,1)"><g><path fill="none" stroke="none"/><text fill="#000000" stroke="none" font-family="monospace" font-size="12px" font-style="normal" font-weight="normal" text-decoration="none" x="204.9287109375" y="46.53125">«interface»</text></g></g><g transform="translate(-14,-22) scale(1,1)"><g><path fill="none" stroke="none"/><text fill="#000000" stroke="none" font-family="monospace" font-size="12px" font-style="normal" font-weight="bold" text-decoration="none" x="208.529296875" y="60.53125">StringList</text></g></g><g transform="translate(-14,-22) scale(1,1)"><g><path fill="none" stroke="none"/><text fill="#000000" stroke="none" font-family="monospace" font-size="12px" font-style="italic" font-weight="normal" text-decoration="none" x="29" y="82.53125">+add(index: int, item: String): boolean</text></g></g><g transform="translate(-14,-22) scale(1,1)"><g><path fill="none" stroke="none"/><text fill="#000000" stroke="none" font-family="monospace" font-size="12px" font-style="italic" font-weight="normal" text-decoration="none" x="29" y="96.53125">+get(index: int): String</text></g></g><g transform="translate(-14,-22) scale(1,1)"><g><path fill="none" stroke="none"/><text fill="#000000" stroke="none" font-family="monospace" font-size="12px" font-style="italic" font-weight="normal" text-decoration="none" x="29" y="110.53125">+size(): int</text></g></g><g transform="translate(-14,-22) scale(1,1)"><g><path fill="none" stroke="none"/><text fill="#000000" stroke="none" font-family="monospace" font-size="12px" font-style="italic" font-weight="normal" text-decoration="none" x="29" y="124.53125">+isEmpty(): boolean</text></g></g><g transform="translate(-14,-22) scale(1,1)"><g><path fill="none" stroke="none"/><text fill="#000000" stroke="none" font-family="monospace" font-size="12px" font-style="italic" font-weight="normal" text-decoration="none" x="29" y="138.53125">+makeString(start: String, sep: String, end: String): String</text></g></g><g transform="translate(-14,-22) scale(1,1)"><g><path fill="none" stroke="none"/><text fill="#000000" stroke="none" font-family="monospace" font-size="12px" font-style="italic" font-weight="normal" text-decoration="none" x="29" y="152.53125">+toString(): String</text></g></g><g transform="translate(-14,-22) scale(1,1)"><g><path fill="none" stroke="none"/><text fill="#000000" stroke="none" font-family="monospace" font-size="12px" font-style="italic" font-weight="normal" text-decoration="none" x="29" y="166.53125">+clear(): void</text></g></g><g transform="translate(-14,-22) scale(1,1)"><g><path fill="none" stroke="none"/><text fill="#000000" stroke="none" font-family="monospace" font-size="12px" font-style="italic" font-weight="normal" text-decoration="none" x="29" y="180.53125">+remove(index: int): String</text></g></g><g transform="translate(-14,-22) scale(1,1)"><g><path fill="none" stroke="none"/><text fill="#000000" stroke="none" font-family="monospace" font-size="12px" font-style="italic" font-weight="normal" text-decoration="none" x="29" y="194.53125">+contains(start: int, target: String): boolean</text></g></g><g transform="translate(-14,-22) scale(1,1)"><g><path fill="none" stroke="none"/><text fill="#000000" stroke="none" font-family="monospace" font-size="12px" font-style="italic" font-weight="normal" text-decoration="none" x="29" y="208.53125">+add(index: int, itemList: StringList): boolean</text></g></g><g transform="translate(-14,-22) scale(1,1)"><g><path fill="none" stroke="none"/><text fill="#000000" stroke="none" font-family="monospace" font-size="12px" font-style="italic" font-weight="normal" text-decoration="none" x="29" y="222.53125">+reverse(): StringList</text></g></g><g transform="translate(-14,-22) scale(1,1)"><g><path fill="none" stroke="none"/><text fill="#000000" stroke="none" font-family="monospace" font-size="12px" font-style="italic" font-weight="normal" text-decoration="none" x="29" y="236.53125">+slice(start: int, stop: int): StringList</text></g></g></g></svg>